<svg width="77" height="77" viewBox="0 0 77 77" fill="none" xmlns="http://www.w3.org/2000/svg">
<g clip-path="url(#clip0_6_65)">
<path opacity="0.8" d="M17.6622 14.0656C23.2576 8.27714 25.4958 -3.82605 10.9477 5.646C7.59048 -7.50962 -9.75527 23.0114 7.59048 16.1705C-6.95757 31.9573 9.82864 28.7999 10.9477 26.1688C-6.39803 44.0604 7.59048 41.9555 7.59048 41.9555C-7.51711 56.6898 17.6622 50.3751 18.2218 47.2178C-1.9217 67.7405 12.6263 68.793 22.6981 59.3209C12.0668 68.793 2.55462 88.7895 35.5675 63.5307C33.8889 71.4241 37.8057 75.6339 44.5201 68.2668C40.0438 77.2126 44.5201 81.4224 58.5087 70.3718C57.9491 74.5815 62.4254 76.6864 68.5804 72.4766C70.259 80.8962 83.1284 61.9521 73.3924 63.5307C77.533 59.8472 78.0926 46.6915 68.0208 55.1111C75.8544 46.6915 84.2475 29.3261 61.8659 46.6915C76.9735 30.3786 80.8903 18.2754 56.83 36.6933C56.83 36.6933 85.9261 9.32958 69.6995 15.1181C69.6995 15.1181 83.1284 -1.72114 48.4369 16.1705C70.8185 6.17223 73.3924 -7.50962 41.1629 10.382C55.1514 -7.50962 38.9247 0.383767 17.6622 14.0656Z" fill="#979797"/>
<g clip-path="url(#clip1_6_65)">
<path d="M68.9224 51.4411H66.1076L63.2232 25.6577H66.9634L68.9224 51.4411ZM30.9246 25.6416L32.9531 51.4873H30.0846L27.1685 25.6416H30.9246ZM62.5576 38.6772L64.4435 52.3896L61.4324 52.8463L58.8016 39.1445L62.5576 38.6772ZM26.804 38.7417L28.4522 52.4226L25.4094 52.6844L22.9054 39.346L26.804 38.7417ZM38.0087 53.1246H35.1402L33.9002 39.346H37.7551L38.0087 53.1246ZM74.0158 53.0181H71.0681L69.8654 39.3037H73.7147L74.0158 53.0181ZM61.9472 31.8881L62.5576 37.0659L58.8016 37.4624L57.8665 32.4561L61.9472 31.8881ZM21.8118 32.4541L26.075 31.8774L26.5504 37.0659L22.7152 37.5542L21.8118 32.4541ZM37.7551 37.5542H33.9002L33.5712 32.6187L37.7551 32.4541V37.5542ZM73.7147 37.6621H69.8654L69.5308 32.4561H73.7147V37.6621ZM7.17454 54.9752L2.95245 22.1982H7.17454L9.46607 42.77C16.9689 41.2554 36.9786 50.2788 7.17454 54.9752ZM42.8741 55.0806L39.0864 24.1753L44.5223 22.0483L45.4952 42.4677C59.3494 41.8637 67.1152 53.9311 42.8741 55.0806ZM12.7839 51.739L17.3651 48.0885L12.0326 46.0503L12.7839 51.739ZM53.2664 48.274L48.0474 46.1245L48.7866 51.7143L53.2664 48.274Z" fill="white"/>
</g>
</g>
<defs>
<clipPath id="clip0_6_65">
<rect width="77" height="77" fill="white"/>
</clipPath>
<clipPath id="clip1_6_65">
<rect width="71" height="33" fill="white" transform="translate(3 22)"/>
</clipPath>
</defs>
</svg>
