<svg width="601" height="183" viewBox="0 0 601 183" fill="none" xmlns="http://www.w3.org/2000/svg">
<g clip-path="url(#clip0_10_3)">
<path d="M0 37V74H38.5H77V100.5V127H38.5H0V137V147H49H98V101V55H59H20V37V19H59H98V9.5V0H49H0V37Z" fill="white"/>
<path d="M310 73.5V147H349H388V137.5V128H397.5H407V100.5V73H397.5H388V64.5V56H397.5H407V37V18H397.5H388V9V0H349H310V73.5ZM387 37V55H358.5H330V37V19H358.5H387V37ZM387 100.5V127H358.5H330V100.5V74H358.5H387V100.5Z" fill="white"/>
<path d="M116 101V147H126H136V128.5V110H155H174V128.5V147H184.5H195V101V55H184.5H174V73V91H155H136V73V55H126H116V101Z" fill="white"/>
<path d="M232 64V73H222.5H213V110V147H223H233V128.5V110H252H271V128.5V147H281H291V110V73H281.5H272V64V55H252H232V64ZM271 82.5V91H252H233V82.5V74H252H271V82.5Z" fill="white"/>
<path d="M445 64V73H435.5H426V100.5V128H435.5H445V137.5V147H465H485V137.5V128H494.5H504V100.5V73H494.5H485V64V55H465H445V64ZM484 100.5V127H465H446V100.5V74H465H484V100.5Z" fill="white"/>
<path d="M523 73.5V92H532.5H542V100.5V109H532.5H523V128V147H533H543V128.5V110H562H581V128.5V147H591H601V128V109H591.5H582V100.5V92H591.5H601V73.5V55H591H581V73V91H562H543V73V55H533H523V73.5Z" fill="white"/>
<path d="M0 173.5V183H300.5H601V173.5V164H300.5H0V173.5Z" fill="white"/>
</g>
<defs>
<clipPath id="clip0_10_3">
<rect width="601" height="183" fill="white"/>
</clipPath>
</defs>
</svg>
