<svg width="1080" height="1080" viewBox="0 0 1080 1080" fill="none" xmlns="http://www.w3.org/2000/svg">
<path d="M310 129.9C309.2 130.3 306.9 131 304.9 131.4C301.2 132 296.2 134.3 292 137.3C290.7 138.2 288.8 139 287.8 139C286.8 139 286 139.5 286 140C286 140.6 283.5 143.7 280.5 147C277.5 150.3 275 153.6 275 154.3C275 156.4 270.6 160 268 160C266.7 160 264.8 159.3 263.8 158.4C262.4 157 259.7 156.7 249.2 156.8C237.7 156.9 235.9 157.1 232.4 159.1C230.3 160.4 228.1 162 227.7 162.7C227.3 163.4 225.6 164 224.1 164C221.8 164 221.1 164.5 220.7 166.7C220.4 168.3 218.8 170.8 217.2 172.5C215 174.8 214.2 176.7 213.8 180.7C213.1 188.5 212.3 189 201.9 189C194.3 189 192.7 189.3 191 191C189.9 192.1 188.4 193 187.7 193C187 193 184.5 196.2 182.2 200C178.1 206.8 178 207.3 178 215.9C178 222.6 178.4 225.1 179.5 226C180.4 226.7 181 228.9 181 231.5C181 234.4 181.6 236.2 183 237.5C184.1 238.5 185 239.9 185 240.7C185 241.4 185.7 243.2 186.6 244.5C188.6 247.5 187.8 250 184.9 250C182.2 250 171 261.5 171 264.2C171 265.2 170.1 266.8 169 267.7C167.9 268.7 167 270.4 167 271.5C167 274.8 165 276 159.6 276C156.7 276 153.7 276.7 152.6 277.5C151.5 278.3 148.7 279 146.3 279C143.9 279 142 279.5 142 280C142 280.6 140.8 281.6 139.3 282.3C135.9 283.8 135.4 284.2 125.3 293.9C120.8 298.2 116.8 302.9 116.5 304.3C116.1 305.7 115.2 307.1 114.4 307.4C113.6 307.7 113 308.8 113 309.8C113 310.9 112.1 312.9 111 314.3C109.9 315.7 109 317.7 109 318.7C109 319.7 108.5 321.1 107.9 321.7C107.3 322.3 106.5 326.7 106.3 331.4C105.8 338.3 106 340.4 107.2 341.8C108.1 342.7 109.1 345.6 109.4 348.2C109.8 350.7 110.8 353.4 111.5 354C112.3 354.7 113 356 113 356.9C113 357.8 113.9 359.3 115 360.3C116.1 361.2 117 363 117 364.2C117 365.9 118.2 367.1 121.4 368.8C123.8 370.1 126.7 372.4 127.9 374C131 378.2 138.2 381.1 147.5 381.9L155.5 382.5L155.8 385.8C156 387.7 155.5 389.9 154.8 390.8C154 391.8 152.9 393.7 152.2 395.2C151.6 396.8 150.6 398 150 398C149.5 398 149 399.2 149 400.7C149 402.1 148.2 404.2 147.3 405.3C145.8 406.8 145.4 409.5 145.2 419.7C144.9 431.2 145 432.5 146.9 435.1C148.1 436.7 149 438.7 149 439.6C149 442 157.3 450 159.8 450C161 450 162.3 450.7 162.8 451.6C163.4 452.6 167 453.7 173.5 454.8C184.7 456.7 187.3 458.7 183.3 462C181.5 463.4 181 464.9 181 468.2C181 470.6 180.3 473.5 179.5 474.6C178.5 475.9 178.1 479 178 484.2C178 490.7 178.4 492.5 180.4 495.4C182.8 499 188.2 504 189.6 504C190 504 191.2 504.8 192.3 505.7C193.8 507.2 196.7 507.6 207.4 508L220.5 508.5L220.8 514.4C221 518.4 221.7 521.1 223.1 522.8C224.1 524.2 225 526 225 526.9C225 527.8 225.8 529.3 226.8 530.2C229.5 532.8 230.7 534.5 231.5 536.9C231.9 538.2 235.5 542.5 239.4 546.5C244.8 551.8 247.6 553.9 250.2 554.4C252.2 554.8 254.3 555.7 255 556.5C255.9 557.5 258.2 558 262.7 558C266.2 558 270 558.4 271 559C273.9 560.5 299.9 557.9 303 555.7C304.4 554.8 306 554 306.7 554C308.2 554 320 543 320 541.7C320 539.7 325.7 534 327.6 534C328.8 534 332.2 535.3 335.3 537C340.4 539.7 341.8 540 350.2 540C356.8 539.9 361.1 539.4 365 538C368 536.9 372.8 536.1 375.6 536C378.9 536 381.2 535.5 382 534.5C382.7 533.7 384 533 385 533C385.9 533 387.5 532.1 388.5 531C389.5 529.9 391.1 529 392.2 529C393.2 529 394.9 528.2 395.9 527.2C397 526.3 398.5 525 399.2 524.4C399.9 523.8 402.3 521.2 404.4 518.6C408.5 513.7 410.7 512.9 411.7 515.7C412.1 516.7 415.4 520.5 419.2 524.2C423.1 528 426 531.7 426 532.8C426 534 427.4 535.6 429.5 536.9C431.4 538 433 539.5 433 540.2C433 540.9 435.6 544.2 438.8 547.6C448.1 557.5 452 562 452 562.9C452 563.4 456.7 568.7 462.5 574.6C468.3 580.6 473 585.8 473 586.2C473 586.7 473.5 587 474 587C475.7 587 479.9 592.3 480 594.5C480 596.7 483.1 599.8 486.7 601.5C487.9 602 490.2 604.2 491.9 606.4L495 610.2L494.5 639.9C494.2 656.2 493.9 672.9 493.8 677L493.5 684.4L490.2 685.1C488.3 685.5 486.3 686.3 485.7 686.9C485.1 687.5 483.8 688 482.8 688C481.8 688 480.2 688.9 479.3 690C477.2 692.4 473.7 692.6 472 690.5C471.3 689.7 469.7 689 468.4 689C464.1 689 462.4 696.2 466 699.5C467.1 700.5 468 702.1 468 703C468 703.9 468.9 705.5 470 706.5C471.1 707.5 472 708.8 472 709.3C472 709.9 472.7 711.1 473.6 712.1C476.7 715.5 474.7 717 467.1 717C457.4 717 457 717.5 456.9 730.8C456.9 741.5 456.9 741.5 453.9 743.9C449.7 747.2 443.6 746.4 440 742.1C438.6 740.4 436.9 739 436.2 739C434.5 739 430.7 734.5 429.5 730.8C428.9 729.2 427.3 727.1 425.9 726.3C423.5 724.8 423.1 724.8 420.7 726.6C419.2 727.6 418 729.5 418 730.6C418 731.8 417.1 733.9 416 735.3C414.9 736.7 414 738.4 414 739.2C414 740.9 408.7 745 406.6 745C405 745 393 733.6 393 732C393 731.4 392.3 729.9 391.5 728.6C390.1 726.5 390.1 725.8 391.4 721.9C393.8 715 393.5 709.4 390.6 707.5C387.4 705.4 383.1 706.5 381.9 709.8C381.3 711.3 379.1 714.1 376.9 716.2C373.4 719.5 372.2 720.1 367.7 720.3C363.6 720.4 362 720.1 360.4 718.5C359.3 717.4 357.2 715.5 355.8 714.3C353.3 712.3 353.2 711.8 353.5 703.8C353.7 699.3 353.9 695 353.9 694.3C354 693.7 356.1 691.5 358.6 689.4C362.6 686.1 363.7 685.7 368.2 685.8C371.2 685.8 373.9 686.5 374.9 687.4C376.8 689.1 383.5 689.6 384.4 688.1C384.8 687.6 385.3 685.2 385.6 682.7C386.2 678.8 386 678.1 384.3 677.6C381.8 676.8 376.1 668.7 375.3 665C374.9 663 375.4 661.2 376.9 659.2C378 657.5 379 655.8 379 655.3C379 654.8 380.5 653.3 382.3 652C384 650.7 386.1 648.8 386.8 647.8C387.5 646.8 389.2 646 390.5 646C391.9 646 394.7 645.1 397 643.9C400 642.3 402.5 641.9 407.2 642C416.8 642.3 417.6 642.2 418.7 639.7C419.2 638.5 419.5 634.5 419.2 630.9L418.8 624.3L423 621L427.1 617.7L430.8 620.7C434.8 623.9 436.2 628.6 433.8 630.5C432.5 631.6 430.5 634.3 429.3 636.9C428.1 639.5 430.5 641.5 435.1 641.8C443.4 642.2 446 643 446 644.9C446 645.9 446.9 647.5 448 648.5C449.6 650 450 651.6 450 657.1C450 666.4 450.4 667 455.5 667C460.4 667 461.9 668.3 459.7 670.8C457.1 673.8 459.1 676.6 464.6 677.4C472.6 678.5 487.5 678.1 488.8 676.8C489.5 676.1 490 673.9 490 671.8V668H477.9C463.2 668 461.8 667.5 462.6 661.7C463 658.9 462.7 656.5 461.6 654.5C460.7 652.8 460 650.5 460 649.4C460 648.2 459.3 646.7 458.5 646C457.7 645.3 457 644.3 457 643.7C457 642.9 453.6 638.6 447.4 631.9C446.7 631 446 628.5 446 626.3C446 623 445.2 621.3 442 617.4C439.8 614.7 438 612.2 438 611.9C438 610.9 428.6 608 425.6 608C424.2 608 422.9 608.4 422.6 608.9C422.3 609.3 420.7 610 419.1 610.3C417.2 610.7 415.6 612 414.6 613.7C413.8 615.3 412 617.7 410.7 619.1C408.8 621 408 622.9 407.8 626.6L407.5 631.5L401.5 632.1C395 632.8 387.5 635.3 384.9 637.6C384.1 638.4 382.8 639 382.2 639C380.3 639 369.2 650.5 368.5 653.2C368.1 654.7 367.2 656.4 366.4 657.1C364.4 658.7 364.5 669.3 366.5 671C368.3 672.5 366.8 675 364 675C363 675 361.7 675.6 361.1 676.4C360.4 677.2 358.8 678.1 357.4 678.4C353.3 679.5 348 683.3 347.4 685.8C347 687 345.9 688.5 344.8 689.1C343 690.1 342.9 691 343.2 700.5C343.4 708.6 343.9 711.2 345.3 712.7C346.2 713.8 347 715.5 347 716.4C347 717.4 347.9 719.3 349 720.7C350.1 722.1 351 723.8 351 724.5C351 725.2 352.7 726.9 354.8 728.2C358 730.2 360.2 730.6 370.5 731L382.5 731.5L382.8 734.5C383 736.1 383.8 737.9 384.6 738.3C385.4 738.7 386 740 386 741C386 742.7 391.6 749 393.2 749C393.5 749 396.2 750.6 399.1 752.5C402.1 754.4 405.5 756 406.9 756C409.9 756 415.5 752.6 419.6 748.3C423.2 744.5 427.3 743.9 429.2 747C429.9 748.1 431.1 749 431.8 749C432.5 749 433.3 749.7 433.6 750.5C434 751.3 435.1 752 436.1 752C437.2 752 438.8 752.9 439.7 754C441.2 755.7 442.7 756 448.7 756C457.2 756 462.6 753.4 463.7 748.7C464 747.1 464.8 745.6 465.5 745.3C466.3 745.1 467.1 741.9 467.5 737.5C467.8 733.4 468.7 729.7 469.3 729.2C470 728.7 472.1 728 474 727.6C478.4 726.8 481.4 723.7 483 718.3C484 715.1 484 713.4 483.2 711.3C480.5 704.5 481.7 698.1 485.6 698C486.2 698 487.3 697.3 488 696.5C489.6 694.6 493.6 694.6 494.4 696.5C495.2 698.6 495.3 787.7 494.5 789C493.6 790.4 491.4 790.2 490.1 788.6C489.4 787.8 487.4 786.8 485.7 786.4C483.9 786.1 481.6 785.1 480.5 784.4C477.6 782.3 445.7 782.4 444 784.5C443.3 785.3 441.2 786.2 439.1 786.6C437.1 787 434.8 787.8 434 788.5C433.2 789.2 431.5 790.1 430.3 790.4C429.1 790.8 427.1 792.4 426 794.1C424.8 795.7 423.3 797 422.6 797C419.6 797 415.7 802.1 415.2 806.7C414.9 809.1 414.1 811.4 413.4 811.7C412.6 812 412 813.7 412 815.7C412 817.7 411 820.8 409.9 822.7C408 825.8 407.8 827.2 408.3 835.3C408.6 840.9 409.4 845.7 410.4 847.5C411.3 849.1 412 852.1 412 854C412 856 412.6 858.4 413.4 859.5C414.1 860.6 415 862.6 415.3 864C416.7 869.6 429.2 880.2 440.8 885.5C442.5 886.4 444 887.5 444 888C444 888.6 445 889 446.3 889C447.6 889 450.4 890.6 452.6 892.5C455.3 894.9 457.5 896 459.6 896C461.3 896 463.9 896.9 465.3 898C467.4 899.6 469.3 900 476.2 900C481.8 900 485.2 900.5 486.6 901.4C487.7 902.2 490.4 903.1 492.6 903.5C496.9 904.3 506 908.1 506 909.2C506 909.5 507.2 910.1 508.8 910.4C511.9 911.1 516 917.4 516 921.3C516 923.1 517 924.4 519.5 925.9C521.4 927 523 928.6 523 929.3C523 930.1 523.9 931.5 525 932.5C526.1 933.5 527 935.2 527 936.4C527 938.2 535.4 946.9 537.2 947C537.5 947 540.2 948.6 543.1 950.5C546.1 952.4 549.3 954 550.3 954C551.3 954 553.3 954.9 554.7 956C556.1 957.1 558.3 958 559.7 958C561 958 563.1 958.6 564.3 959.4C566.5 960.8 580.9 962.1 593.5 962.1C631.8 962 682.9 960.6 685 959.5C686.4 958.8 691.5 958 696.4 957.6C701.5 957.2 706.2 956.2 707.4 955.4C708.5 954.6 710.5 954 711.8 954C713.1 954 715.3 953.1 716.7 952C718.1 950.9 719.9 950 720.6 950C724.3 950 734 940.3 734 936.6C734 934.8 743 925 744.7 925C745.5 925 746.9 923.6 747.8 921.9C748.9 920.1 750.6 918.7 752.3 918.3C753.9 918 755.4 917.1 755.7 916.4C756 915.6 757 915 757.9 915C758.8 915 761.1 914.2 763 913.1C765.5 911.8 769.5 911.1 776.7 910.7C784.2 910.3 787.4 909.8 788.5 908.6C789.4 907.7 790.9 907 791.8 907C792.8 907 795.9 905.4 798.9 903.5C801.8 901.6 805.4 900 806.9 900C809.5 900 813 897.4 813 895.6C813 895.2 816.1 891.7 820 887.9C823.9 884.1 827 880.4 827 879.7C827 878.9 827.9 877.1 829 875.7C830.1 874.3 831 872.5 831 871.7C831 871 831.9 869.3 833 868C834.1 866.7 835 865 835 864.1C835 862.3 842.6 853 844.1 853C845.6 853 854.8 846.2 858.6 842.2C860.6 840.2 862.8 837.1 863.6 835.3C864.4 833.6 865.4 831.9 866 831.5C866.5 831.2 867 829.9 867 828.7C867 827.5 867.8 824.9 868.8 823C871.7 817.6 873.9 809.2 874.3 801.5C874.6 797.6 875.6 793 876.5 791.2C878 788.2 878.2 782.1 878.2 721.2C878.1 656.5 878.1 654.3 876.1 648.6C874.9 645.3 874 641.3 874 639.6C873.9 637.9 873.3 635.4 872.5 634C871.7 632.6 871.1 629.5 871 627C871 624.4 870.1 620.8 869 618.7C867.9 616.7 867 614 867 612.7C867 611.5 866.4 609.6 865.6 608.5C864.9 607.4 864 604.3 863.7 601.7C863.3 599 862.3 595.9 861.5 594.7C860.7 593.5 860 592 860 591.4C860 590.8 858.4 588.5 856.5 586.4C854.6 584.3 853 581.6 853 580.4C853 579 852.2 577.9 851 577.5C849.9 577.2 849 576.5 849 576C849 574.6 836.9 563 835.5 563C834.8 563 831.8 561.4 828.9 559.5C825.9 557.6 822.6 556 821.4 556C820.2 556 817.8 554.7 815.9 553.1L812.5 550.1L815 547.4C816.4 545.9 819.7 542.6 822.3 540C825.8 536.5 827.3 534.2 827.7 531.4C828.1 528.9 829.5 526.5 831.7 524.4C833.7 522.5 835 520.3 835 518.8C835 517.4 835.7 515.7 836.5 515C837.5 514.2 838 511.9 838 508.1C838 504.3 838.6 501.5 839.9 499.3C841 497.6 842 494 842.2 491.3L842.5 486.5L847.3 486.2C850 486 853.6 485 855.3 483.9C857.1 482.9 859.5 482 860.8 482C862 482 863 481.6 863 481.2C863 480.7 865.4 477.9 868.4 475C872.5 471 874.1 468.7 874.5 465.8C874.9 463.7 875.6 461.8 876.1 461.4C877.4 460.6 877.2 454.8 875.6 450.3C874.2 446.4 869.8 441 868 441C867.5 441 866.5 440.4 865.8 439.7C863.6 437.7 855.6 434 853.5 434C850.8 434 849 432.2 849 429.3C849 428.1 848.2 426.7 847.3 426.1C845.8 425.3 845.5 423 845.2 407.8C844.9 395.7 844.4 389.7 843.4 387.8C842.6 386.3 842 382.5 842 379.4C842 375.6 841.5 373.1 840.4 371.9C839.6 371 838.6 367.6 838.3 364.4C838 361 837.1 358.2 836.4 357.7C835.6 357.3 835 355.7 835 354.2C835 352.7 834.1 350.7 833 349.7C831.9 348.8 831 347.3 831 346.5C831 345.7 830.1 344.1 829 343C827.9 341.9 827 340.2 827 339.2C827 338.3 825.4 335.8 823.5 333.7C821.6 331.6 820 329.3 820 328.7C820 328 818.3 325.6 816.3 323.3C810 316.5 803.6 308.9 802.5 307C801.5 305.2 786.6 293 785.4 293C785 293 783 291.5 780.9 289.7C774.3 284.2 771.2 282 769.7 282C768.9 282 767.7 281.3 767 280.5C766.3 279.7 764.4 279 762.8 279C761.2 279 759.7 278.4 759.4 277.6C759.1 276.8 757.1 275.9 755 275.5C752.9 275.1 750.6 274.2 749.9 273.4C749.3 272.6 748.2 272 747.6 272C747 271.9 744.7 271.1 742.5 270C740.1 268.8 736.3 268.1 733 268C730 268 726.2 267.3 724.6 266.5C720.5 264.3 681.4 264.4 678.6 266.5C677.2 267.5 674.1 268 669 268C662.6 268 661 268.3 659.5 270C658.3 271.3 656.4 272 654 272C651.9 272 649.7 272.6 649.1 273.4C648.4 274.2 646.6 275.2 645 275.5C643.4 275.8 641.9 276.8 641.6 277.6C641.3 278.4 640.1 279 638.9 279C636.6 279 626.3 283.7 625.4 285.1C625.1 285.6 624.2 286 623.4 286C622.6 286 620.5 287.6 618.7 289.5C617 291.4 614.6 293 613.5 293C612.3 293 609.1 295.4 606 298.5C603 301.5 599.8 304 598.8 304C597.8 304 595.9 305.7 594.6 307.8C592.5 311.2 588.5 315.4 583 320.2C581.8 321.3 581 323.2 581 325C581 326.9 580.3 328.3 579 329C577.9 329.6 577 330.7 577 331.4C577 332.2 576.3 333.3 575.5 334C574.7 334.7 574 335.9 574 336.7C574 337.5 573.1 339.3 572 340.7C570.6 342.5 570 344.8 570 348C570 351 569.4 353.2 568.5 354C567.7 354.7 567 355.9 567 356.8C567 357.7 566.1 360.2 565.1 362.4C564.1 364.7 562.9 369.4 562.6 373C562.3 376.6 561.4 381.3 560.6 383.5C559.8 385.7 559.1 389 559 390.8C559 392.6 558.4 395.1 557.6 396.3C555.4 399.7 554.4 439.5 555.6 469.5C556 479.8 556.7 485.1 557.6 486.5C558.4 487.6 559 490 559 491.8C559 493.7 559.9 496.3 561 497.7C562.2 499.2 563 501.8 563 504C563 506.1 563.7 508.3 564.5 509C565.3 509.7 566.2 511.8 566.5 513.9C566.9 515.9 567.8 518.7 568.6 520.2C569.4 521.6 570 524.4 570 526.4C570 529.7 569.6 530.2 565.5 532.2L561 534.4L556 529.5C553.2 526.8 551 524.1 551 523.4C551 522.8 549.2 520.3 547 518C544.8 515.7 543 513 543 512.1C543 511.2 541.4 508.9 539.5 507C537.6 505.1 536 503.1 536 502.4C536 501.8 534.4 499.5 532.5 497.4C530.6 495.2 529 492.7 529 491.7C529 490.6 526.5 487.1 523.5 483.7C520.5 480.4 518 477.2 518 476.6C518 475.9 514.8 472.1 510.9 468C507 463.9 503.2 459.3 502.5 457.9C500.3 453.8 494.8 448 493 448C490.9 448 489 446 489 443.7C489 442.7 486.6 439.5 483.7 436.7C480.9 433.8 477.7 429.9 476.6 427.8C475.6 425.8 472.8 422.8 470.4 421C468 419.3 466 417.2 466 416.4C466 414.5 470.5 410 472.3 410C473.1 410 474.3 409.3 475 408.5C475.7 407.7 477.2 407 478.4 407C479.6 407 481.3 406.1 482.3 405C483.2 403.9 484.7 403 485.5 403C486.4 403 488.7 401.4 490.7 399.5C492.7 397.6 495.2 396 496.3 396C498.1 396 510.3 384.9 518.9 375.6C524.2 369.8 527.2 367 528.1 367C528.6 367 529 365.9 529 364.5C529 362.9 530.3 360.6 532.3 358.7C537.6 353.2 542.7 341.7 543.3 333.5C543.6 329.6 544.4 325.3 545 323.9C545.9 321.9 545.8 319.5 544.6 313.1C543.7 308.5 543 300.6 543 295.5C543 288.5 542.6 285.9 541.5 285C540.7 284.3 540 283 540 282C540 281.1 539.1 279.1 538 277.7C536.9 276.3 536 274.3 536 273.2C536 272.1 534.4 269.5 532.5 267.4C530.6 265.2 529 262.6 529 261.4C529 260.2 526.9 257.4 524.3 254.9C519.9 250.6 516.1 246.9 511.8 242.3C510.6 241.1 508.6 239.9 507.3 239.5C506 239.2 504.1 238.2 503.1 237.2C502.1 236.3 500.4 234.9 499.2 234.1C496.3 232.1 495.9 229.6 498.1 225.5C500.8 220.4 500.8 204.3 498 198.1C496.9 195.7 496 192.7 496 191.4C496 190.1 495.5 189 494.9 189C494.4 189 493.3 187.5 492.5 185.6C491.7 183.7 490.6 181.9 490 181.5C489.5 181.2 489 179.6 489 178C489 175.9 488.4 175.1 486.5 174.6C483.4 173.8 479.4 170.1 478.1 166.8C477.4 165 476.1 164.1 473.6 163.6C471.6 163.2 470 162.5 470 162C470 161.4 469.3 161 468.5 161C467.7 161 466.2 160.2 465.2 159.2C462.3 156.3 456.4 153 454 153C452.8 153 450.6 152.1 449.2 150.9C446.6 148.9 445.8 148.8 432.7 149.5C424.1 149.9 417.8 150.7 416.2 151.6C414.7 152.4 411.1 153 408.1 153C404.6 153 402 153.6 401 154.5C400 155.4 396.5 156.3 392.4 156.6C388.6 156.9 384.2 157.6 382.7 158.2C380.3 159.1 379.5 158.9 376 156.1C373.9 154.4 371.2 153 370.2 153C369.1 153 367.7 152.4 367.1 151.6C366.4 150.8 364.5 149.8 362.9 149.5C361.3 149.1 360 148.5 360 148C360 147.5 357.5 145.7 354.5 144C351.5 142.3 349 140.4 349 139.9C349 139.4 348.1 139 347.1 139C345 139 336.7 134.9 334 132.6C331.5 130.4 312.7 128.2 310 129.9ZM330.3 145.1C330.6 146.1 331.6 147 332.5 147C333.4 147 334.8 147.7 335.6 148.5C336.5 149.3 338.7 150 340.6 150C342.6 150 343.9 150.4 343.5 150.9C343.2 151.5 343.9 152.4 345 153C346.2 153.6 348 155 349.1 156.1C350.1 157.1 351.9 158 353 158C354.1 158 355 158.7 355 159.5C355 160.3 355.6 161 356.3 161C357 161 358.1 161.9 358.8 163C359.6 164.4 361.1 165 363.5 165C365.8 165 366.9 165.4 366.8 166.2C366.6 167 367.8 167.6 369.6 167.8C371.8 168 373 168.7 373.3 170.1C373.7 171.7 374.7 172 379.9 172C384.9 172 386.1 171.7 387 170C387.9 168.3 389.1 168 395.8 168C400.7 168 404.1 167.5 404.8 166.7C405.8 165.8 412.5 165.4 429.6 165.2C450.1 164.9 453.1 165.1 453.6 166.4C453.9 167.3 455.3 168 456.6 168C457.9 168 459 168.4 459 169C459 169.5 459.9 170.8 461.1 171.9C462.3 173 462.9 174.4 462.5 175C462 175.9 462.4 176 464 175.5C465.5 175 466.5 175.3 467.1 176.1C467.8 177.3 468 177.3 468 176.2C468 174.1 476.9 183.7 477.6 186.5C477.9 187.9 478.8 189.4 479.4 189.8C481.1 190.8 482.1 193.8 480.9 194.5C479.5 195.4 480.8 197 482.5 196.3C483.6 196 484 196.5 484 198.2C484 199.5 484.8 201.6 485.7 203C488.3 206.8 488.5 216.6 486 221.5C484.9 223.7 484 227.4 484 230C484 233.3 483.7 234.1 483 233C482.4 232.1 482 232 482 232.7C482 234.6 485.4 240 486.6 240C487.3 240 488 240.9 488.3 242C488.6 243.1 489.5 244 490.4 244C491.3 244 492 244.7 492 245.5C492 246.5 493 247 495.1 247C497.3 247 498.3 247.5 498.7 249C499 250.1 499.7 251 500.4 251C501 251 502.1 251.9 502.8 253C503.5 254.1 504.7 255 505.5 255C506.3 255 507 255.7 507 256.5C507 257.3 507.7 258 508.5 258C509.3 258 510 258.7 510 259.5C510 260.3 510.7 261 511.5 261C512.3 261 513 261.9 513 263C513 264.1 513.7 265.3 514.5 265.6C515.3 266 515.8 266.6 515.5 267C515.2 267.4 516.1 268.1 517.5 268.4C519.3 268.9 520.2 269.9 520.7 272C521 273.7 521.7 275 522.1 275C522.6 275 523.5 276.1 524 277.5C524.5 278.9 525.6 280 526.5 280C527.7 280 527.9 281.3 527.7 287C527.4 293 527.6 294 529 294C530.5 294 530.8 295.7 531.3 306.7C531.6 314.6 532.2 319.6 532.9 319.8C534.4 320.3 534.3 321.9 532.5 323.6C531.5 324.7 531 327.2 531 331.6C531 336.6 530.7 338 529.5 338C528.5 338 528 339 528 341.1C528 343.3 527.5 344.3 526 344.7C524.5 345.1 524 346.1 524 348.6C524 350.8 523.5 352 522.6 352C521.9 352 521 352.9 520.7 354C520.4 355.2 519.3 356 518.1 356C516.7 356 516.2 356.5 516.6 357.5C517 358.4 516.6 359 515.7 359C513.7 359 512.1 361.7 512.7 364.1C513.1 365.6 512.5 366.1 510.1 366.6C508.4 367 507 367.8 507 368.5C507 369.2 506.3 370 505.5 370.4C504.7 370.7 503.5 372.1 502.8 373.5C502.1 375 501.1 375.9 500.3 375.6C499.6 375.3 499 375.7 499 376.5C499 377.3 498.5 378 497.9 378C497.4 378 497.2 378.4 497.5 379C497.9 379.6 496.9 380 495.3 380C490.6 380 487.5 382.2 487.8 385.2C488 387.5 487.7 387.9 484.8 388.2C482.9 388.4 481.6 389 481.7 389.7C481.9 390.3 481 391.2 479.7 391.6C478.5 392 477.2 392.8 476.8 393.3C476.4 393.9 474.9 394.5 473.3 394.6C471.8 394.7 469.7 394.8 468.8 394.9C467.8 394.9 467 395.5 467 396.2C467 397.8 461 403 458.3 403.6C457 404 456.3 404.6 456.6 405.1C456.9 405.6 456.4 406 455.5 406C453 406 452 410.3 452 420.7C452 427.6 451.6 430.8 450.6 431.9C448.6 434.2 447.2 440.1 448 442.5C448.9 445 448.2 446.4 446.7 445.2C445.9 444.6 444.4 444.9 442.5 446.1C440.9 447.2 439.8 448 440.3 448C440.7 448 440.1 448.9 439 450C437.9 451.1 435.1 452.2 432.8 452.5C430.4 452.8 428 453.7 427.3 454.6C426.6 455.5 425.4 456 424.6 455.7C423 455.1 417 457.9 417 459.2C417 459.7 415.5 460 413.6 460C411.6 460 410 460.6 409.7 461.4C408.9 463.5 408.6 480.9 409.4 481.7C409.7 482 410 483.8 410 485.6C410 488.1 409.5 488.9 407.6 489.4C406.2 489.7 405 491 404.6 492.5C404.2 493.9 403.5 495 403 495C402.4 495 402 495.9 402 497C402 498 401.1 499.4 400 500C398.4 500.8 398 502.1 398 505.6C398 509.3 397.6 510.3 396 510.7C394.9 511 394 511.8 394 512.5C394 513.3 392.7 514.1 391 514.5C389.4 514.9 388 515.5 388 516C388 516.4 387.1 517 386 517.3C384.9 517.6 384 518.5 384 519.4C384 520.5 383.1 521 381 521C379.4 521 377.7 521.6 377.3 522.4C376.8 523.2 373.6 523.9 368.6 524.4C363.8 524.7 360 525.6 359 526.5C356.7 528.5 344 528.6 344 526.6C344 525.3 340.6 523.6 338.7 523.9C338.2 524 336.3 522.5 334.5 520.5C331.2 517.2 330.8 517.1 325.9 517.5C319.6 518.2 319 518.5 319 521.5C319 522.9 318.1 524.4 317 525C315.9 525.6 315 526.7 315 527.5C315 528.3 314.3 529 313.5 529C312.7 529 312 529.6 312 530.4C312 531.2 311.2 532.1 310.1 532.5C309.1 532.8 308 534.4 307.6 536C307.2 538.1 306.3 539.1 304.3 539.6C301.8 540.3 301.8 540.4 303.5 541.1C305 541.7 304.6 541.9 301.9 541.9C298.4 542 295.3 544 296.6 545.3C296.9 545.6 288.4 545.9 277.6 545.9C261 545.9 258 545.7 258 544.5C258 543.7 257.6 543 257 543C254.6 543 247.1 536.4 247.1 534.2C247 533 246.6 532 246 532C244.8 532 240 527.2 240 526C240 525.4 239.3 525 238.4 525C237.2 525 236.9 524.3 237.2 522.5C237.5 521.1 237.3 520 236.9 520C236.4 520 236 519.3 236 518.4C236 517.6 235.3 516.2 234.5 515.4C233.6 514.4 233 512 233 509.1C233 506.5 232.4 503.8 231.8 503.1C231.1 502.5 230.5 501.6 230.5 501.2C230.4 499.1 227.7 496 226 496C225 496 223.8 495.5 223.4 494.9C223 494.2 221.2 494 218.6 494.4C216.4 494.7 210.9 495.1 206.5 495.3C199.9 495.5 198.3 495.2 197.1 493.8C196.2 492.8 195 492 194.3 492C193.6 492 193 491.6 193 491.1C193 490.6 192.1 490 191 489.7C189.3 489.3 189 488.7 189.6 486.4C190 484.8 190.3 482.3 190.3 480.7C190.3 479 190.6 478.4 191.1 479.2C192.4 481.3 194.2 475 193.5 470.8C193.1 468.5 193.2 467 193.8 467C194.4 467 195 467.6 195.3 468.2C195.5 468.9 196 467.4 196.4 464.8C196.8 462.3 197.7 459.9 198.4 459.7C201.8 458.4 201 444 197.4 442.6C196.6 442.3 190 442 182.7 441.9C170.3 441.8 166.3 441 167.6 438.9C167.9 438.4 167.2 438 166.1 438C164.9 438 164 437.3 164 436.5C164 435.7 163.3 435 162.5 435C161.7 435 161 434.4 161 433.6C161 432.8 160.1 431.5 159.1 430.8C157.5 429.6 157.2 428.1 157.2 419.3C157.1 410.1 157.3 409.2 159.1 408.7C160.4 408.4 161 407.3 161 405.6C161 402.8 164.6 395.3 165.6 395.8C166.6 396.4 168 393.7 168 391.2C168 390 168.9 388.1 170 387C172.7 384.3 172.7 377.7 170 375C168.9 373.9 168 372.4 168 371.6C168 369.8 161.2 368.6 152.8 368.9C148.5 369.1 146 368.8 146 368.1C146 367.5 143.7 366.8 140.8 366.4C137.4 365.9 134.9 364.9 133.5 363.5C127.8 357.5 125.1 353.7 124.8 351.2C124.6 349.7 123.9 348.5 123.1 348.5C122 348.5 121.5 347.1 121.3 344.1C121.1 341.7 120.4 339 119.6 338.1C117.9 336.3 118.1 330.6 119.8 327.3C120.5 326.1 121 324 121 322.6C121 321.1 121.8 319.6 123 319C124.3 318.3 125 316.9 125 315C125 313 125.5 312 126.5 312C127.3 312 128 311.4 128.1 310.7C128.2 310.1 128.3 308.6 128.4 307.5C128.5 306.2 129.3 305.4 131 305.2C132.3 305 134.8 303.4 136.5 301.6C138.1 299.8 140.3 298.1 141.3 297.7C142.2 297.4 143 296.4 143 295.5C143 294.5 143.9 294 145.7 294C147.1 294 149.2 293.2 150.2 292.3C151.6 291 154.3 290.6 162.2 290.5C170.3 290.4 172.5 290 173.5 288.7C174.2 287.8 175.4 287 176.3 287C178.2 287 179 284.9 179 280C179 277.1 179.4 276.1 181 275.7C182.4 275.3 183 274.3 183 272.2C183 270.6 183.7 268.7 184.5 268C185.3 267.3 186 266.2 186 265.4C186 264.4 187.7 263.3 191 262.5C194 261.7 197.2 259.6 200.3 256.4C203.6 253 204 252 204 247.3C204 243.1 203.6 241.9 202 241C200.9 240.4 200 239.3 200 238.5C200 237.7 199.3 237 198.5 237C197.6 237 197 236.1 197 234.5C197 232.6 196.5 232 195.3 232.2C193.8 232.5 193.5 231.7 193.4 227.4C193.3 224.4 192.6 221.2 191.6 219.9C190.7 218.6 190 216.4 190 215C190 211.2 194.1 204.2 196.7 203.5C198 203.2 199 202.5 199 202C199 201.4 200.6 201 202.5 201C204.4 201 206 201.4 206 202C206 203.5 213.4 205.1 217.1 204.3C219 204 221.6 202.6 222.9 201.4C224.2 200.1 225.5 199.2 225.9 199.4C226.2 199.6 226.3 195.4 226.2 189.9C225.8 180.3 225.9 180 228.5 177.6C230 176.2 231.6 175.2 232 175.5C232.4 175.8 233 175.1 233.3 174C233.6 172.6 234.7 172 236.5 172C238.3 172 239.4 171.4 239.7 170C240.2 168.2 241.1 168 250.1 167.8C255.6 167.8 260.6 167.7 261.3 167.6C261.9 167.5 262.6 168.5 262.8 169.7C263 171 263.5 172 264 172C264.4 172 265 173 265.3 174.2C265.7 175.4 266.2 176.1 266.6 175.7C267 175.3 268.2 176.8 269.2 179C270.9 182.7 271.2 182.9 274.3 182.3C276 182 278.7 180.8 280.3 179.6C283 177.6 283.3 176.2 283.4 167.3C283.4 166 284.2 164.8 285.2 164.4C286.5 164 287 162.8 287 160.4C287 158.3 287.4 157.1 288 157.5C288.6 157.8 289.3 157.4 289.7 156.5C290.5 154.3 294.3 150.5 296.4 149.7C297.3 149.3 298 148.6 298 148.1C298 147.6 299.4 146.7 301 146.1C302.7 145.6 304 144.7 304 144.1C304 143.5 309.2 143.1 316.9 143.1C328.8 143.1 329.8 143.2 330.3 145.1ZM724.1 275.6C725 276.5 728 277 731.6 277C735.8 277 738.4 277.6 740.5 279C742.2 280.1 744.8 281 746.3 281C747.8 281 749.3 281.6 749.6 282.4C749.9 283.2 751.6 284.1 753.5 284.4C755.3 284.8 757.1 285.7 757.4 286.5C757.7 287.3 759 288 760.2 288C761.5 288 763.3 288.9 764.3 290C765.3 291.2 767.2 292 768.9 292C771.1 292 772.6 292.9 774.6 295.5C776 297.4 777.8 299 778.5 299C779.1 299 780.7 299.9 782 301C783.3 302.1 784.9 303 785.6 303C786.4 303 787.7 304.2 788.7 305.7C789.6 307.3 792.9 311 796 314.1C799 317.2 802.9 321.4 804.5 323.5C807.7 327.5 810.9 330.7 813.4 332.8C814.3 333.5 815 335.3 815 336.7C815 338.2 816.5 341.1 818.5 343.6C820.4 345.9 822 348.6 822 349.5C822 350.4 823.6 353.1 825.5 355.4C828.1 358.7 829 360.7 829 363.6C829.1 365.7 829.9 369.3 831 371.5C832.1 373.7 832.9 377.4 833 379.7C833 382.1 833.7 385.7 834.5 387.7C835.5 390.3 836 396.9 836.3 409.2C836.6 424 836.9 427.3 838.3 428.8C839.2 429.8 840 431.7 840 432.9C840 435.4 847.6 443 850.1 443C851 443 852.3 443.7 853 444.5C853.7 445.4 855.9 446 858.4 446C860.7 446 863.1 446.5 863.8 447.2C864.6 448 865 451.9 865 458.1V467.7L861.2 470.2C859.1 471.6 855.4 473.1 853 473.5C850.5 473.9 847.6 474.9 846.5 475.6C845.4 476.4 843.6 477 842.5 477C838.4 477 833 485.1 833 491.2C833 493.6 832.1 497.2 831 499.3C829.9 501.4 829 504.9 829 507.4C829 510 828.4 512.2 827.5 513C826.7 513.7 826 515.1 826 516.1C826 517.2 825.1 518.9 824.1 519.9C823.1 520.9 821.9 522.7 821.6 523.7C821.3 524.8 819.6 526.6 818 527.8C816.3 529.1 815 530.7 815 531.6C815 533.9 810.4 538 807.8 538C806.3 538 803.2 540.1 799.5 543.5C796.3 546.5 793.2 549 792.7 549C792.2 549 790.7 549.9 789.3 551C787.9 552.1 785.9 553 785 553C784 553 782.7 553.7 782 554.5C781.3 555.3 779.8 556 778.6 556C777.4 556 775.7 556.9 774.7 558C773.8 559.1 772.2 560 771.1 560C770.1 560 768.7 560.6 768.1 561.4C767.5 562.1 763.8 563 759.3 563.4C754.7 563.7 751 564.6 750 565.5C749.1 566.3 746.6 567 744.4 567C742.2 567 739.9 567.5 739.3 568.1C737 570.4 729.4 571 701.6 571C674.5 571 672.4 570.9 668.8 569C666.7 567.9 663.2 567 661 567C658.8 567 656.5 566.3 655.5 565.4C654.6 564.5 651.8 563.5 649.4 563.2C646.9 563 644.6 562.1 644.3 561.4C644 560.6 642.8 560 641.5 560C639.3 560 634.2 556.7 632.7 554.4C632.3 553.7 630.1 552.9 627.8 552.5C624.9 552 622.7 550.7 620.5 548.4C618.7 546.5 616.6 545 615.8 545C615 545 612.7 543.5 610.7 541.6C608.6 539.7 606 538 604.7 537.6C602.2 537 585.6 521.5 581.5 516.1C580.1 514.2 579 511.6 579 510.4C579 509.2 578.4 507.7 577.6 507.1C576.9 506.5 576 504.7 575.7 503.1C575.4 501.5 573.8 498.8 572.2 497C569.2 493.8 568 490.3 568 485C568 483.5 567.4 481.7 566.6 481.1C563.2 478.3 563.1 411.9 566.5 406.5C567.2 405.4 567.9 399.8 568.2 393.8C568.6 385.7 569.1 382.8 570.3 381.5C571.3 380.5 572 378.3 572 376C572 373.9 572.5 371.8 573.1 371.5C573.6 371.1 574 369.8 573.9 368.7C573.5 365.1 576.4 353.8 577.7 353.3C578.5 353 579 351 579 348.4C579 345.2 579.6 343.5 581 342.3C582.1 341.3 583 339.7 583 338.7C583 337.7 585.2 334.3 588 331.2C591 327.8 593.2 324.3 593.6 322.2C594.1 319.9 595 318.5 596.9 317.7C598.3 317.1 602.8 313.3 606.8 309.3C610.8 305.3 614.8 302 615.8 302C616.8 302 618.9 300.6 620.6 298.9C623.3 296.1 632.3 291 634.7 291C635.3 291 636.3 290.3 637 289.5C637.7 288.7 639.2 288 640.4 288C641.6 288 643.3 287.1 644.3 286C645.2 284.9 646.8 284 647.9 284C648.9 284 650.3 283.3 651 282.5C651.7 281.7 653.2 281 654.3 281C655.4 281 657.2 280.2 658.3 279.3C659.7 278 662.4 277.4 668.4 277.1C672.8 277 677.1 276.3 677.9 275.6C681 273.1 721.1 273.1 724.1 275.6ZM470.8 436.2C472.5 438.6 475.2 442 476.9 443.8C478.6 445.6 480 447.4 480 447.8C480 448.7 485.5 454.7 496.6 466.2C501.2 470.9 505 475.5 505 476.3C505 477.1 507.2 480.1 509.9 483C512.6 485.9 515.1 489.2 515.4 490.4C515.7 491.5 518.2 495 521 498C523.7 501 526 504.2 526 505.1C526 506 526.9 507.5 528 508.5C529.1 509.5 530 511.1 530 512.2C530 513.8 532.4 516.7 541 525.6C542.7 527.2 544 529.3 544 530.2C544 531 544.7 532.3 545.5 533C547.8 534.9 547.3 538.4 544.2 541.3C542.7 542.8 541 544 540.6 544C540.2 544 537.9 545.6 535.6 547.5C533.2 549.4 530.7 551 530 551C528.2 551 515 564.1 515 566C515 566.9 512.8 570.1 510 573.2C506.4 577.2 504.9 579.9 504.4 582.9C504 585.1 503.1 587.5 502.4 588.1C501.6 588.7 501 590.3 501 591.5C501 594.4 498.6 596.3 496.1 595.5C494.3 594.9 486 586 486 584.6C486 583.7 469 567.1 466.9 565.9C465.8 565.4 465 564.3 465 563.6C465 562.8 462 558.9 458.3 555C454.5 551 450 545.7 448.2 543.1C446.4 540.6 443.8 538.1 442.5 537.7C440.8 537.1 440 536.1 440 534.5C440 532.8 437.7 529.9 432.6 524.9C428.5 521 425 516.8 424.8 515.6C424.6 514.5 423.4 513 422 512.3C415.9 509.4 413 503.1 416 499.5C418.3 496.7 421 490.5 421 488C421 486.6 421.7 484.5 422.5 483.3C423.3 482.2 424.1 479 424.4 476.2C424.8 470 425.4 469 428.8 469C430.3 469 432.9 468.1 434.5 467C436.2 465.9 438.2 465 439.1 465C440 465 441.3 464.3 442 463.5C442.7 462.7 444.3 462 445.7 462C448.3 462 461 450.1 461 447.6C461 446.9 462 445.1 463.1 443.6C464.7 441.6 465.1 440 464.7 437.6C464.2 434.6 465.3 432 467 432C467.4 432 469.1 433.9 470.8 436.2ZM593.3 543.5C595.4 545.4 597.7 547 598.4 547C599.1 547 600.9 547.9 602.3 549C603.7 550.1 605.8 551 606.9 551C608.1 551 609 551.5 609 552C609 552.6 610.2 553.6 611.8 554.2C613.3 554.9 616.5 556.9 618.9 558.7C621.6 560.7 624.5 562 626.3 562C629.1 562 630.5 562.9 634.8 567.2C635.7 568.2 637.5 569 638.8 569C640 569 641.3 569.7 641.6 570.5C642 571.3 643.3 572 644.6 572C645.9 572 647.8 572.9 648.7 574C650.1 575.6 651.7 576 656.8 576C660.6 576 664.5 576.7 666.8 577.7C670 579.2 674.8 579.5 701.7 579.8C731.5 580.1 733.1 580 737.6 578.1C740.8 576.7 744.4 576 748.9 576C753.8 576 756.3 575.5 758.5 574C760.2 572.9 762.9 572 764.6 572C766.3 572 768.3 571.3 769 570.5C769.7 569.7 771 569 771.9 569C772.8 569 774.9 568.1 776.5 567C778.2 565.9 780.5 565 781.6 565C782.8 565 784.3 564.3 785 563.5C785.7 562.7 787 562 787.9 562C788.8 562 790.6 561.3 791.9 560.3C793.9 558.9 794.6 558.9 796.4 560C797.5 560.8 801.9 561.6 806 561.9C813.2 562.5 813.5 562.6 814.5 565.5C815 567.1 816.3 569.1 817.2 569.8C818.2 570.5 819 571.8 819 572.6C819 573.4 820.6 576.2 822.5 578.7C824.4 581.2 826 584.3 826 585.5C826 586.6 826.7 588.5 827.5 589.6C828.7 591.2 828.9 609.2 829 724.7V857.9L825.5 863.9C823.6 867.1 822 870.2 822 870.7C822 871.1 820.4 873 818.5 874.7C816.6 876.5 815 878.8 815 879.8C815 881.9 811.1 885.7 805.5 889C803.3 890.3 800.2 892.7 798.5 894.3C795.2 897.5 792 899 788.5 899C787.2 899 786 899.6 785.8 900.2C785.5 901.1 782.2 901.6 775.2 901.8C768.1 902.1 764.7 902.6 763.9 903.6C763.3 904.4 761.9 905 760.9 905C759.1 905 750.3 909.3 748.6 911.1C748 911.6 747 912 746.2 912C744.4 912 736 918.9 736 920.4C736 921.1 733.5 923.9 730.5 926.7C726.8 930.1 725 932.6 725 934.2C725 937.2 722.4 941 720.2 941C719.3 941 717.4 941.7 716 942.4C707 947.4 704.9 948.1 694.8 949C689.1 949.5 683.2 950.4 681.7 950.9C679.8 951.6 659.7 952 622.6 952C573.7 952 566.1 951.8 565 950.5C564.3 949.7 562.2 949 560.4 949C558.3 949 556.2 948.2 555 947C553.9 945.9 552.4 945 551.6 945C547.8 945 532 930 532 926.3C532 925.7 531.3 924.7 530.5 924C529.6 923.3 529 921.1 529 918.9C529 915.8 528.3 914.5 525.5 911.9C523.6 910.1 522 908.2 522 907.5C522 905.7 516.8 902.4 512.9 901.6C510.8 901.3 508.7 900.3 508 899.5C507.3 898.7 505.4 898 503.8 898C502.2 898 500.7 897.4 500.4 896.5C500 895.6 498.4 895 496.1 895C494.1 895 490.5 894.1 488.1 893C485.7 891.9 481.8 891 479.4 891C476.9 891 473.4 890.1 471.3 889C469.2 887.9 465.7 887 463.4 887C461.1 887 458.7 886.4 458.1 885.6C457.4 884.8 455.7 883.9 454.3 883.5C452.8 883.2 450 881.5 447.9 879.9C445.9 878.3 443.6 877 442.8 877C442 877 439.6 875.4 437.4 873.5C435.3 871.5 432.6 869.7 431.5 869.4C429.5 868.9 426.9 865.3 424.4 859.9C423.7 858.4 422.7 856.9 422.1 856.6C421.5 856.2 421 854.3 421 852.3C421 850.3 420.1 847.7 419 846.3C417.3 844.1 417 842.2 417 834C417 825.8 417.3 823.9 419 821.7C420.1 820.3 421 817.9 421 816.2C421 814.6 421.9 812.3 423 811C424.1 809.7 425 808.3 425 807.8C425 806.6 427.4 804.2 433 799.8C436.5 797 438.7 796.2 443 795.7C446 795.4 449.9 794.5 451.5 793.6C455.6 791.4 467.5 791.5 471.5 793.6C473.4 794.7 478.1 795.5 484.4 795.9L494.4 796.5V809.6C494.5 820.6 494.8 822.9 496.3 824.4C497.2 825.4 498 826.9 498 827.8C498 829.8 504.6 837 511.2 842.3C514.7 845.1 516.7 846 519.7 846C521.8 846 524.7 846.8 526 847.7C528 849.1 530.6 849.5 538.5 849.5C546.4 849.5 549 849.1 551 847.7C552.7 846.5 555.4 846 559.8 846C564.7 846 566.8 845.5 568.7 844C570.1 842.9 572.1 842 573.1 842C574.2 842 575 841.6 575 841.1C575 839.9 584.5 835 586.8 835C587.7 835 589.3 834.2 590.1 833.2C590.9 832.3 595.3 828.1 599.8 824C604.2 819.9 608.1 815.6 608.5 814.3C608.8 813.1 610.4 811.3 612 810.5C613.8 809.6 615 808.2 615 807C615 805.9 615.9 804.2 617 803.3C618.1 802.3 619 800.6 619 799.4C619 798.2 619.7 796.7 620.5 796C621.3 795.3 622 794 622 793.1C622 792.2 622.9 789.8 624 787.7C625.1 785.7 626 783 626 781.7C626 780.4 626.7 777.1 627.5 774.4C629.6 767.8 629.6 747.5 627.5 744.3C626.7 743.1 626 740 626 737.5C626 734.9 625.2 731.4 624 729.3C622.9 727.2 622 724 622 722.2C622 720.4 621.3 718.2 620.5 717.4C619.4 716.3 619 713.6 619 707.9C619 701.9 618.5 699.1 617 696.3C615.8 693.9 615 690.6 615 687.5C615 684.5 614.4 681.6 613.5 680.4C612.5 679.1 612.1 676 612 670.8C612 666.5 611.2 660.5 610.3 657.3C607.8 649 607.1 604 609.5 602C611.5 600.4 611.4 595.1 609.4 592.2C608 590.2 607.7 590.1 605.7 591.5C604.5 592.3 602.7 595.4 601.6 598.3C599.9 602.8 599.6 606.6 599.3 627.2C599 646.4 599.2 651.6 600.4 654.4C601.2 656.4 602.2 662.3 602.6 667.7C603 673.1 603.9 678.7 604.6 680.2C605.4 681.7 606 684.7 606 687C606 689.3 606.7 692.5 607.6 694.1C608.5 695.9 609.4 701 609.7 706.3C610 711.4 610.8 716.2 611.5 717C612.2 717.8 613 720.9 613.3 723.9C613.7 726.9 614.6 730 615.5 731C616.5 732.1 617 734.7 617 738.7C617 742.9 617.5 745.1 618.5 746C619.7 747 620 749.9 620 760.5C620 771.1 619.7 774 618.5 775C617.7 775.7 617 777.9 617 779.9C617 781.9 616.1 784.8 615 786.5C613.9 788.1 613 790.3 613 791.3C613 792.3 612.3 793.3 611.5 793.6C610.7 794 610 795.3 610 796.5C610 797.8 609.6 799.2 609 799.5C608.5 799.8 606.4 802.6 604.4 805.6C602.4 808.7 599.7 811.6 598.4 812C597.2 812.5 595.8 813.9 595.4 815.2C594.6 818 590.8 821.6 587.8 822.6C586.5 822.9 583.8 824.8 581.7 826.6C579.7 828.5 577.2 830 576.1 830C575.1 830 573.7 830.7 573 831.5C572.3 832.3 571 833 570 833C569.1 833 567.5 833.9 566.5 835C565.1 836.5 563.4 837 559.6 837C556.7 837 551.7 837.9 548.5 839.1C541.3 841.7 529.2 841.4 526.2 838.6C525.2 837.7 522.7 837 520.6 837C516.3 837 513.7 834.8 507.7 826.3C504.1 821.1 504 820.9 504 811.5C504 805.9 504.5 801.2 505.2 800.1C506.1 798.6 506.1 797.3 505.2 794.2C504.3 791.2 504 767.2 504 700.2C504 622.2 504.2 609.9 505.5 607.4C506.3 605.8 507 603.5 507 602.4C507 601.2 507.9 599.1 509 597.7C510.1 596.3 511 594.5 511 593.7C511 592.8 511.7 590.9 512.5 589.3C513.4 587.8 514.5 585.4 515.1 584C516.7 579.9 518.3 577.6 521.8 574.2C523.5 572.5 525 570.7 525 570.3C525 568.4 530.5 562 532.8 561.2C534.3 560.7 537.8 558.2 540.6 555.6C544.8 551.9 546.5 551 549.4 551C551.6 551 553.3 550.4 553.6 549.6C553.9 548.8 556.9 547.2 560.3 546C563.7 544.8 567.6 543.3 569 542.7C573.8 540.5 575.5 540.2 582.5 540.1C589.2 540 589.7 540.2 593.3 543.5ZM836.8 575.5C838.5 576.4 840.2 578 840.5 579C840.9 580.1 841.6 581 842.1 581C842.6 581 843 581.6 843 582.3C843 583.1 844.8 585.6 847 587.9C849.4 590.4 851 593.1 851 594.5C851 595.8 851.7 597.3 852.6 597.8C853.6 598.3 854.4 600.6 854.8 603.6C855.1 606.3 855.9 609.1 856.7 609.8C857.4 610.5 858 612.6 858 614.4C858 616.4 858.8 618.4 860 619.5C861.4 620.7 862 622.6 862 625.4C862 627.7 862.7 630.4 863.5 631.4C864.6 632.9 865 636.2 865 643.7C865 651.7 865.4 654.8 866.7 657.3C868.4 660.3 868.9 666.8 869.9 694C870 694.8 869.9 698.9 869.8 703C869.7 707.1 869.7 712.7 869.9 715.5C870 718.2 869.9 732.9 869.5 748C869 769.4 868.5 776.2 867.4 778.5C866.3 780.5 865.7 786.2 865.3 796.3C864.9 806.8 864.3 811.3 863.3 812.1C862.6 812.7 862 814.9 862 817C862 819.3 861.2 821.6 860 823C858.9 824.3 858 826.2 858 827.2C858 828.2 857.4 829.3 856.6 829.6C855.8 829.9 854.8 831.5 854.5 833.1C854 835.1 852.9 836.5 850.7 837.4C848.9 838.1 846.4 839.9 845.1 841.4C842.3 844.3 839.5 844.8 838.6 842.4C838.3 841.5 838 784.5 838 715.5C838 605.4 837.8 590.1 836.5 589C835.7 588.3 835 586.6 835 585.3C835 583.9 834.3 581.6 833.4 580C832.4 578.5 832 576.5 832.3 575.6C833.1 573.6 833 573.6 836.8 575.5Z" fill="black"/>
<path d="M724.6 320.5C723.5 321.4 720.5 322 717.7 322C714.3 322 712 322.6 710.3 324C708.9 325.1 706.7 326 705.5 326C704.2 326 703 326.7 702.6 327.5C702.3 328.3 701.4 329 700.7 329C699.9 329 698.3 329.9 697 331C695.4 332.3 693.3 333 690.3 333C687.4 333 685.8 333.5 685.4 334.5C685.1 335.3 683.8 336.2 682.7 336.6C677.6 338.1 659.9 355.1 654.4 363.7C652.5 366.5 650.6 369.1 650 369.5C649.5 369.8 649 370.9 649 371.9C649 372.9 648.4 374.3 647.6 374.9C646.9 375.5 646 377.9 645.7 380.1C645.4 382.3 644.5 384.9 643.6 385.9C642.6 387 642 389.5 642 392.4C642 395.1 641.3 399.9 640.4 403.3C638.8 409.5 639.2 420.4 641.1 421.6C641.6 421.9 642 424.1 642 426.5C642 429.2 642.8 432.3 644 434.2C645.1 436 646 439.1 646 441C646 443.8 646.8 445.4 649.5 448C651.4 449.9 653 452 653 452.6C653.1 456.4 676.9 481.4 681.4 482.6C682.8 482.9 684.4 483.8 685.1 484.6C685.8 485.4 688.1 486 690.9 486C693.7 486 696.5 486.7 698 487.7C700.2 489.3 703.3 489.5 724.5 489.5C745.7 489.5 748.8 489.3 751 487.7C752.4 486.8 755.3 486 757.6 486C760.1 486 762.3 485.4 763 484.5C763.7 483.7 765.1 483 766.1 483C767.2 483 770 481.2 772.4 479C774.8 476.8 777.1 475 777.5 475C780.6 475 796.7 458.4 798.5 453.3C799 451.8 800.8 449.2 802.5 447.5C805.7 444.3 807.1 442.4 809.5 437.3C810.3 435.6 811.4 433.9 812 433.5C812.5 433.2 813 431 813 428.6C813 425.7 813.7 423.5 815 422C816.4 420.4 817 418.3 817 415C817 412.5 817.7 409.5 818.5 408.4C820.6 405.6 820.6 385.8 818.5 384C817.7 383.3 817 381.6 817 380.3C817 378.9 816.1 376.7 815 375.3C813.9 373.9 813 371.2 813 369.4C813 367.5 812.6 366 812.1 366C811.6 366 810 363.9 808.4 361.2C805.7 356.6 804.2 354.6 800.8 351.2C799.8 350.3 799 348.3 799 346.8C799 344.9 798.5 344 797.5 344C795.9 344 793.3 341.6 789 336.2C787.6 334.4 785.6 333 784.4 333C783.2 333 781.7 332.4 781.1 331.6C780.4 330.8 778.6 329.8 777 329.5C775.4 329.2 773.9 328.2 773.6 327.4C773.3 326.6 771.8 326 770.3 326C768.8 326 766.2 325.1 764.5 324C762.4 322.6 759.8 322 755.9 322C752.1 322 749.8 321.5 749 320.5C747.2 318.4 727.4 318.4 724.6 320.5ZM764.3 333C765.7 334.1 767.5 335 768.4 335C769.3 335 772.3 336.6 775 338.5C777.7 340.4 780.7 342 781.5 342C783.4 342 790 348.4 790 350.2C790 351 791.5 353.2 793.4 355.1C797.1 358.8 801 365.5 801 368.1C801 369 801.7 370.3 802.5 371C803.3 371.7 804 372.8 804 373.4C804 374 804.9 375.6 806 377C807.1 378.4 808 380.7 808 382.1C808 383.6 808.7 385 809.5 385.4C810.7 385.8 811 388.1 811 396.9C811 405.6 810.7 407.9 809.5 408.4C808.4 408.8 808 410.5 808 414.8C808 419.4 807.6 421.1 806 422.5C804.9 423.5 804 425.4 804 426.7C804 428 803.3 429.3 802.5 429.6C801.7 430 801 431.2 801 432.4C801 434.5 794.4 445.2 791.7 447.5C791 448 789.2 450.5 787.5 453C785.9 455.5 783.9 458.1 783.3 458.8C782.6 459.5 782 460.6 782 461.1C782 461.6 780.8 462.3 779.4 462.6C778 463 774.6 465.4 771.9 468.1C769.1 470.8 766.1 473 765.2 473C764.3 473 762.2 473.9 760.5 475C758.9 476.1 756.5 477 755.2 477C753.9 477 751.7 477.9 750.1 479.1C747.4 481.1 746.3 481.1 723.2 480.8C702 480.5 699 480.3 697.3 478.7C696.2 477.8 694 477 692.3 477C690.6 477 688.5 476.2 687.5 475C686.5 473.9 684.9 473 684 473C681.7 473 670.1 461.7 665.5 455C663.4 452 660.9 448.7 659.9 447.7C658.8 446.7 658 444.9 658 443.6C658 442.3 657.3 441 656.5 440.6C655.7 440.3 655 439 655 437.7C655 436.4 654.1 434.5 653 433.5C651.6 432.3 651 430.4 651 427.6C651 425.3 650.3 422.6 649.5 421.6C647.5 419 647.5 406.6 649.5 401C650.3 398.7 651 395.3 651 393.6C651 391.9 651.9 389.1 653 387.5C654.1 385.8 655 383.8 655 382.9C655 382 655.6 380.7 656.4 380.1C657.1 379.5 658 376.9 658.4 374.4C658.9 370.7 660.1 368.6 664.4 363.6C667.4 360.3 672.4 355.7 675.5 353.5C678.7 351.3 683 347.8 685.2 345.7C688 343.2 690.2 342 692.1 342C693.8 342 697.1 340.5 700 338.5C702.7 336.6 705.5 335 706.2 335C706.9 335 708.9 334.1 710.5 333C713.3 331.2 715.2 331 737.6 331C760.2 331 761.9 331.1 764.3 333Z" fill="black"/>
<path d="M767.9 361.2L765 364.4V380.3C765 395.1 765.1 396.3 767.3 399.2C772.6 406.6 773.3 407 780 407C785.4 407 786.6 406.7 788.6 404.5C789.9 403.1 791.3 400.8 791.6 399.5C791.9 398.2 792.8 396.6 793.6 395.9C794.6 395 795 391.9 795 383.5V372.2L791.5 367.6C789.6 365 788 362.3 788 361.5C788 359.2 784.6 358 777.5 358C771.3 358 770.7 358.2 767.9 361.2Z" fill="black"/>
</svg>
