<svg width="1080" height="1080" viewBox="0 0 1080 1080" fill="none" xmlns="http://www.w3.org/2000/svg">
<g id="xsr2" clip-path="url(#clip0_0_1)">
<rect width="1080" height="1080" fill="white"/>
<path id="Vector" d="M813.5 430.3L753 445.5C784.6 492 813.4 556 826.9 623.5C846.6 721.8 860.522 900.555 863.622 1079.86H923V1061.4C923 1003 916.9 876.1 910.4 801C897.7 652.5 881 566.9 851.5 498C840.4 472 817.1 430.7 813.5 430.3Z" fill="#606060"/>
<path id="Vector_2" d="M269.8 458.2C248.7 495.2 234 530.9 222 574.4C202.5 645.2 185.1 755.5 172.6 887.5C166.2 954.2 157.722 1076.16 159.122 1079.86L218.622 1079.86C218.822 1079.26 219.4 1068.5 220 1057.5C227 931.2 240.1 801.8 255.1 710C274.9 588.2 295.4 526.2 335.2 466.7C339.6 460.2 343 454.7 342.8 454.6L282.622 440.355C279.622 439.755 278.4 443.1 269.8 458.2Z" fill="#606060"/>
<path id="Vector_3" d="M681 620C670.6 621.7 657.5 626.1 646.5 631.5C632.7 638.4 619.1 645.8 618.7 646.6C618.3 647.5 643 658.7 652.6 661.9C663.6 665.6 676.9 668 686.5 668C708.1 668 732.1 657.7 743.2 643.8L746.4 639.7L740.7 634.5C734.7 629.1 726.2 624.4 717 621.5C710.6 619.5 689.5 618.6 681 620Z" fill="#606060"/>
<path id="Vector_4" d="M466.5 644.9C454.6 647.2 440.8 651.9 422.7 659.9C415.4 663.2 407.5 666.4 405.2 667.1C398.7 669 397.5 668.3 422 677.4C442.6 685 457 688.2 474.2 688.8C487 689.2 490.2 689 498.5 687.1C503.7 685.8 510.8 683.7 514.3 682.3C525.9 677.6 542 665.5 542 661.4C542 659.9 535.9 654.4 532.3 652.6C520 646.4 509.1 644 491.5 643.5C479.6 643.1 474.4 643.4 466.5 644.9Z" fill="#606060"/>
<path id="Vector_5" d="M677 622.7C672.6 623.4 661.6 627.2 656.5 629.8C649.1 633.5 634.9 643.1 635.2 644.2C635.6 645.2 640.9 647.3 655.5 652.2C672.5 657.9 693.5 657.1 706.8 650.2C712.8 647.1 721.9 640.1 722 638.5C722 636.7 713.8 629.4 709.3 627.1C701 623 686.9 621 677 622.7Z" fill="black"/>
<path id="Vector_6" d="M467.5 647.4C458.6 649.1 452.3 651.3 443.5 655.7C435.3 659.9 420 669.6 420 670.7C420 671.2 422.6 672.1 425.8 672.7C428.9 673.4 436.9 675 443.5 676.4C470.9 682.2 496.3 677.8 510.7 664.7L516.2 659.6L513.9 657.7C503.1 649 482.8 644.5 467.5 647.4Z" fill="black"/>
<path id="Vector_7" d="M615 796.5C614.2 796.7 608.8 797.4 603 798C569.9 801.8 533.2 813.5 526.1 822.6C521.8 828.1 524.4 833.7 531.7 834.7C535.9 835.2 566.3 833 595.5 830C606 828.9 621.9 827.6 631 827.1C644.9 826.4 648.2 825.9 651.8 824.1C656.7 821.6 660 816.9 660 812.4C660 806.4 653 799.2 645.1 797C641.9 796.1 618.9 795.8 615 796.5Z" fill="#606060"/>
<path id="Vector_8" d="M339.622 265.355C339.622 265.355 336.676 184.742 333.122 129.355C327.122 35.8555 320.122 0.355469 320.122 0.355469L356.122 0.355438C371.206 76.8554 369.622 187.355 374.122 253.855C374.122 210.855 377.622 114.355 363.622 0.355438L731.122 0.355469C731.122 0.355469 715.622 144.855 706.622 231.355C721.622 149.855 737.622 0.355469 737.622 0.355469H770.622C770.622 0.355469 754.568 79.8561 748.122 129.355C741.64 179.124 737.6 253.855 737.6 253.855C737.6 253.855 887.121 272.5 918.621 342.355C918.621 369.5 891.743 435.255 717.122 455.355C577.243 471.456 468.624 471.784 349.622 455.355C152.122 435.855 166.122 352.855 166.122 352.855C213.622 286.855 339.622 265.355 339.622 265.355Z" fill="black"/>
</g>
<defs>
<clipPath id="clip0_0_1">
<rect width="1080" height="1080" fill="white"/>
</clipPath>
</defs>
</svg>
