<svg width="1080" height="1080" viewBox="0 0 1080 1080" fill="none" xmlns="http://www.w3.org/2000/svg">
<g clip-path="url(#clip0_33_118)">
<path d="M0 0H1080V1080H0V0Z" fill="white"/>
<path d="M513 724C509 723 504 741 496 749C471 754 516 749 448 801C435 825 457 837 470 829C502 785 505 774 510 794C517 806 512 775 518 774C535 772 557 794 572 796C580 770 544 711 513 724ZM511 749C520 697 563 784 563 784C540 770 522 761 515 764C524 729 467 816 467 816C467 804 456 803 456 803C477 794 513 752 511 749Z" fill="black"/>
<path d="M359 671C250 719 393 654 415 783C415 783 461 858 464 814C433 809 478 661 359 671ZM518 779C516 780 516 794 517 806C528 799 545 795 555 799C546 791 521 777 518 779Z" fill="#8D8D8D"/>
<path d="M592 235C140 -50 111 1080 111 1080H183C183 1080 198 98 591 235H592Z" fill="#8D8D8D"/>
<path d="M592 235C875 132 896 1080 896 1080H968C968 1080 961 12 592 235Z" fill="#8D8D8D"/>
<path d="M205 320C207 346 329 426 387 411C418 403 474 405 534 405C605 404 691 370 826 247C878 190 781 68 722 60C601 13 220 131 205 320Z" fill="#8D8D8D"/>
<path d="M540 493C545 524 400 494 400 495L419 518C419 518 490 505 523 533H598L727 465C688 468 602 513 580 511C577 498 577 460 577 460L540 492V493Z" fill="#8D8D8D"/>
<path d="M538 449C538 498 572 540 342 464C342 492 467 510 476 512C444 500 358 536 402 554L480 559C593 567 500 506 477 513C494 518 547 527 550 489C550 489 548 430 538 449ZM475 519C468 530 470 542 476 548C476 548 432 550 399 543C420 513 467 518 475 519ZM480 519C495 520 522 543 523 546C521 551 489 552 481 548C486 540 488 529 480 519Z" fill="black"/>
<path d="M711 459C629 476 601 532 579 493C579 493 566 529 615 514C609 516 535 566 649 552C744 541 730 500 717 500C657 500 621 513 616 515C652 495 692 468 744 468C753 461 711 459 711 459ZM713 511C725 532 648 541 648 541C653 534 653 524 647 518C662 512 713 511 713 511ZM639 518C635 525 634 534 641 541C632 542 609 545 598 542C600 529 631 518 639 518Z" fill="black"/>
<path d="M595 439C590 422 565 479 576 475C582 473 593 451 595 439Z" fill="black"/>
<path d="M698 48C431 16 194 222 199 318C206 472 732 342 830 308C822 289 833 279 822 262C870 255 863 87 698 48ZM630 56C709 51 755 81 755 81C607 137 717 92 716 83C709 36 262 117 225 312C245 360 313 352 355 345C308 386 223 357 211 323C186 253 355 87 630 57V56ZM823 246C534 386 728 314 534 339C575 321 649 339 797 238C829 210 797 127 762 117C694 120 480 264 402 340C358 347 599 127 765 92C782 91 871 194 823 246ZM600 141C553 188 354 346 334 339C354 329 579 135 600 141ZM534 339C494 351 467 354 436 370C431 340 499 355 534 339ZM403 340C354 354 367 391 294 379C341 374 379 346 403 340Z" fill="black"/>
<path d="M280.467 694.759C280.467 694.759 316.113 704.615 353.739 701.33C335.916 692.132 347.11 671 361 671C361 671 230.298 682.276 280.467 694.759Z" fill="#C4C4C4"/>
</g>
<defs>
<clipPath id="clip0_33_118">
<rect width="1080" height="1080" fill="white"/>
</clipPath>
</defs>
</svg>
