<svg width="77" height="77" viewBox="0 0 77 77" fill="none" xmlns="http://www.w3.org/2000/svg">
<g clip-path="url(#clip0_3_5)">
<path opacity="0.8" d="M17.6622 14.0656C23.2576 8.27714 25.4958 -3.82605 10.9477 5.646C7.59048 -7.50962 -9.75527 23.0114 7.59048 16.1705C-6.95757 31.9573 9.82864 28.7999 10.9477 26.1688C-6.39803 44.0604 7.59048 41.9555 7.59048 41.9555C-7.51711 56.6898 17.6622 50.3751 18.2218 47.2178C-1.9217 67.7405 12.6263 68.793 22.6981 59.3209C12.0668 68.793 2.55462 88.7895 35.5675 63.5307C33.8889 71.4241 37.8057 75.6339 44.5201 68.2668C40.0438 77.2126 44.5201 81.4224 58.5087 70.3718C57.9491 74.5815 62.4254 76.6864 68.5804 72.4766C70.259 80.8962 83.1284 61.9521 73.3924 63.5307C77.533 59.8472 78.0926 46.6915 68.0208 55.1111C75.8544 46.6915 84.2475 29.3261 61.8659 46.6915C76.9735 30.3786 80.8903 18.2754 56.83 36.6933C56.83 36.6933 85.9261 9.32958 69.6995 15.1181C69.6995 15.1181 83.1284 -1.72114 48.4369 16.1705C70.8185 6.17223 73.3924 -7.50962 41.1629 10.382C55.1514 -7.50962 38.9247 0.383767 17.6622 14.0656Z" fill="#979797"/>
<path d="M9 16H69M9 16V61H69V16M9 16L39 44L69 16" stroke="white" stroke-width="5"/>
</g>
<defs>
<clipPath id="clip0_3_5">
<rect width="77" height="77" fill="white"/>
</clipPath>
</defs>
</svg>
